# xmcd
#
# Track frame offsets:
# 150
# 12246
# 26956
# 41417
# 52991
# 68448
# 86065
# 100261
# 115105
# 128880
# 139280
# 152616
# 165417
# 180000
# 193709
#
# Disc length: 2745 seconds
#
#
# Revision: 0
# Processed by: cddbd v1.5.1PL0 Copyright (c) Steve Scherf et al.
# Submitted via: FreeRIP 2.941 
#
DISCID=b80ab70f
DTITLE=BANDA MAGIA LEGAL - MAGIA CHEGOU
DYEAR=2004
DGENRE=Country
TTITLE0=Sera Que Vai Chover?- B. Magia Legal
TTITLE1=Preciso Partir- B. Magia Legal
TTITLE2=Passatesão- B. Magia Legal
TTITLE3=Sempre Tem Alguem- B. Magia Legal
TTITLE4=Telefone Chora- B. Magia Legal
TTITLE5=Tatiane- B. Magia Legal
TTITLE6=O Ismirilho- B. Magia Legal
TTITLE7=Briga De Casal- B. Magia Legal
TTITLE8=Quero Um Beijo- B. Magia Legal
TTITLE9=Magia Legal- B. Magia Legal
TTITLE10=Loira De Farmacia- B. Magia Legal
TTITLE11=Perfuminho No Sofá- B. Magia Legal
TTITLE12=Amor Com Chantyli- B. Magia Legal
TTITLE13=Por Impulso- B. Magia Legal
TTITLE14=Sempre Tem Aguém-Ao Vivo- B. Magia Legal
EXTD=
EXTT0=
EXTT1=
EXTT2=
EXTT3=
EXTT4=
EXTT5=
EXTT6=
EXTT7=
EXTT8=
EXTT9=
EXTT10=
EXTT11=
EXTT12=
EXTT13=
EXTT14=
PLAYORDER=
